# xmcd
#
# Track frame offsets:
#	150
#	12518
#	27763
#	45711
#	59046
#	76810
#	88616
#	102106
#	114757
#	125855
#	138335
#
# Disc length: 2135 seconds
#
# Revision: 1
# Processed by: cddbd v1.5.2PL0 Copyright (c) Steve Scherf et al.
# Submitted via: EZCDAudioConverter 8.0.1.1
#
DISCID=8b08550b
DTITLE=Willie Nelson - My Way
DYEAR=2018
DGENRE=Country
TTITLE0=Fly Me To The Moon
TTITLE1=Summer Wind
TTITLE2=One For My Baby (And One More For The Road)
TTITLE3=A Foggy Day
TTITLE4=It Was A Very Good Year
TTITLE5=Blue Moon
TTITLE6=I'll Be Around
TTITLE7=Night And Day
TTITLE8=What Is This Thing Called Love (With Norah Jones)
TTITLE9=Young At Heart
TTITLE10=My Way
EXTD=
EXTT0=
EXTT1=
EXTT2=
EXTT3=
EXTT4=
EXTT5=
EXTT6=
EXTT7=
EXTT8=
EXTT9=
EXTT10=
PLAYORDER=
